G04*
G04 #@! TF.GenerationSoftware,Altium Limited,Altium Designer,20.0.2 (26)*
G04*
G04 Layer_Color=8388736*
%FSLAX25Y25*%
%MOIN*%
G70*
G01*
G75*
%ADD18R,0.01975X0.02762*%
%ADD19R,0.03465X0.03268*%
%ADD20R,0.07880X0.07487*%
%ADD21R,0.07880X0.07880*%
%ADD22R,0.06699X0.08668*%
%ADD23R,0.05715X0.01975*%
%ADD24R,0.02677X0.02480*%
%ADD25O,0.03543X0.01496*%
%ADD26O,0.01496X0.03543*%
%ADD27R,0.11024X0.11024*%
%ADD28R,0.02677X0.02284*%
%ADD29R,0.02284X0.02677*%
%ADD30R,0.02480X0.02677*%
%ADD31R,0.02906X0.02526*%
%ADD32R,0.03950X0.07493*%
%ADD33R,0.04331X0.04724*%
%ADD34R,0.03950X0.03950*%
%ADD35R,0.10105X0.14337*%
%ADD36R,0.10105X0.04534*%
%ADD37R,0.05912X0.05124*%
%ADD38R,0.03268X0.03465*%
%ADD39R,0.03150X0.03150*%
%ADD40R,0.08268X0.04331*%
%ADD41R,0.06400X0.05912*%
%ADD42C,0.05912*%
%ADD43C,0.06699*%
%ADD44C,0.12611*%
D18*
X43676Y55287D02*
D03*
X43524Y59613D02*
D03*
X43676Y49381D02*
D03*
X43524Y65519D02*
D03*
D19*
X28600Y98542D02*
D03*
Y103858D02*
D03*
X101100Y109358D02*
D03*
Y104042D02*
D03*
X56600Y88542D02*
D03*
Y93858D02*
D03*
D20*
X13244Y71160D02*
D03*
Y41240D02*
D03*
D21*
Y60920D02*
D03*
Y51480D02*
D03*
D22*
X23284Y68405D02*
D03*
Y43995D02*
D03*
D23*
X24956Y61320D02*
D03*
Y53640D02*
D03*
Y51080D02*
D03*
Y58760D02*
D03*
Y56200D02*
D03*
D24*
X104631Y86200D02*
D03*
X108569D02*
D03*
X99568D02*
D03*
X95631D02*
D03*
X21632Y21200D02*
D03*
X25569D02*
D03*
D25*
X116226Y108571D02*
D03*
Y106603D02*
D03*
Y104634D02*
D03*
Y102666D02*
D03*
Y100697D02*
D03*
Y98729D02*
D03*
X131974D02*
D03*
Y100697D02*
D03*
Y102666D02*
D03*
Y104634D02*
D03*
Y106603D02*
D03*
Y108540D02*
D03*
D26*
X119180Y95777D02*
D03*
X121148Y95777D02*
D03*
X123117Y95777D02*
D03*
X125085Y95777D02*
D03*
X127054Y95777D02*
D03*
X129022Y95777D02*
D03*
Y111525D02*
D03*
X127054Y111525D02*
D03*
X125085Y111525D02*
D03*
X123117Y111525D02*
D03*
X121148Y111525D02*
D03*
X119180Y111525D02*
D03*
D27*
X124100Y103602D02*
D03*
D28*
X112631Y91104D02*
D03*
X116569D02*
D03*
X141068Y98700D02*
D03*
X137132D02*
D03*
X132069Y116200D02*
D03*
X128131D02*
D03*
X138131Y81700D02*
D03*
X142069D02*
D03*
X143069Y26700D02*
D03*
X139131D02*
D03*
X143069Y31700D02*
D03*
X139131D02*
D03*
X142569Y45700D02*
D03*
X138631D02*
D03*
D29*
X127100Y86731D02*
D03*
Y90668D02*
D03*
X49100Y64069D02*
D03*
Y60132D02*
D03*
Y50831D02*
D03*
Y54768D02*
D03*
D30*
X122100Y86731D02*
D03*
Y90668D02*
D03*
X138600Y40668D02*
D03*
Y36731D02*
D03*
D31*
X9251Y21363D02*
D03*
X13489D02*
D03*
D32*
X151293Y72878D02*
D03*
X137907D02*
D03*
X151793Y57700D02*
D03*
X138407D02*
D03*
D33*
X32100Y29354D02*
D03*
Y36046D02*
D03*
D34*
X15153Y29000D02*
D03*
X9247D02*
D03*
D35*
X89755Y103009D02*
D03*
D36*
X67255Y93954D02*
D03*
Y103009D02*
D03*
Y112065D02*
D03*
D37*
X35270Y94200D02*
D03*
X48930D02*
D03*
X34770Y84200D02*
D03*
X48430D02*
D03*
D38*
X38500Y73300D02*
D03*
X33185D02*
D03*
D39*
X84990Y51157D02*
D03*
Y55487D02*
D03*
Y59818D02*
D03*
X89320D02*
D03*
Y55487D02*
D03*
Y51157D02*
D03*
X93651Y59818D02*
D03*
Y55487D02*
D03*
Y51157D02*
D03*
D40*
X58651Y31078D02*
D03*
Y36983D02*
D03*
Y42889D02*
D03*
Y48794D02*
D03*
Y54700D02*
D03*
Y60606D02*
D03*
Y66511D02*
D03*
Y72417D02*
D03*
Y78322D02*
D03*
X127549D02*
D03*
Y72417D02*
D03*
Y66511D02*
D03*
Y60606D02*
D03*
Y54700D02*
D03*
Y48794D02*
D03*
Y42889D02*
D03*
Y36983D02*
D03*
Y31078D02*
D03*
D41*
X110722Y125700D02*
D03*
X58363Y125763D02*
D03*
D42*
X102848Y125700D02*
D03*
X94974D02*
D03*
X87100D02*
D03*
X79226D02*
D03*
X71352D02*
D03*
X26867Y125763D02*
D03*
X34741D02*
D03*
X42615D02*
D03*
X50489D02*
D03*
D43*
X13600Y98137D02*
D03*
Y90263D02*
D03*
D44*
X149600Y123200D02*
D03*
Y10200D02*
D03*
X9600D02*
D03*
Y123200D02*
D03*
M02*
