M48
;Layer_Color=9474304
;FILE_FORMAT=2:4
INCH,TZ
;TYPE=PLATED
T1F00S00C0.0118
T2F00S00C0.0315
T3F00S00C0.0354
T4F00S00C0.0984
%
T01
X410Y2120
Y2620
Y3170
X660Y3720
Y4220
Y4720
Y5220
Y5720
X3010Y5070
X2910Y4670
Y4320
X3660Y4220
Y4720
Y5220
X4260Y4570
X4610
X4660Y4220
X5160
X5010Y4570
X3810Y3570
X2460Y3720
X2110
X2160Y1220
Y720
X2660
Y1220
X3160
X3660
Y720
X3160
X4160
Y1220
Y1720
Y2220
X6610Y2930
X6960
X7310
X7660
X8010
X8360
X8710
X9060
X9410
X9760
X10110
X10460
X10810
X11160
X11510
X11860
X13460Y3045
Y3420
Y2670
X14710Y2470
Y2870
Y3320
X14660Y3720
X15160
Y4220
Y4720
X14660
Y4370
X14760Y5270
Y5670
X12160Y5470
X10160Y4720
X9660
X9160
X8660
X8160
X7660
X7160
Y4220
X7660
X8160
X8660
X9160
X9660
X10160
X10660
X8932Y5116
Y5549
X7660Y5220
X6710Y4320
X6460Y3720
X15160Y3220
Y2720
X14160Y1720
Y720
X14760Y6070
X14710Y7120
Y7520
X14560Y7920
Y8320
X14660Y8720
Y9220
X14160
X14510Y9670
Y10020
X14160Y10220
Y10720
Y11220
Y11720
Y12220
X13660
Y12720
X14160
X13160
X12660
Y12220
X13160
X13610Y11720
Y11370
X13560Y10870
X12810Y10720
Y10370
Y10020
X12410
X12060
Y10370
X12410
Y10720
X12060
X12110Y11570
X12160Y12220
Y12720
X10510Y11120
X10210Y11370
X10310Y9770
X10060
X10460Y8970
X10910Y9120
X11810Y8781
X12160Y8270
Y7920
X12510Y8270
X12110Y6670
X12010Y6070
X8932Y5982
X9160Y7220
X9660
Y7720
X9160
X8610Y7920
X8210Y7820
X7860Y8070
X7560Y8270
X7160Y8720
X7660Y6720
X7160Y6220
X6710Y10770
X6360
Y11620
X6710
X15160Y11220
Y10720
Y10220
Y9720
Y9220
Y8720
Y8220
X13560Y9570
X5560Y8420
X5160Y7720
X4660
Y7220
Y6820
X5060
X5160Y7220
X4260Y7470
X3910Y7720
X4310Y6920
X2460Y7520
X2110
X2160Y8220
X2660
X1610Y8320
X1210
X810
Y8720
Y9120
X660Y7720
X610Y7320
X660Y6720
Y6220
X1160Y7720
Y11220
X1660
Y11720
X2160
Y11220
X2660
X2610Y10820
X2960
X660Y11220
T02
X8360Y5120
X9560
Y6070
X8410Y5970
T03
X5836Y12576
X7135Y12570
X7923
X8710
X9497
X10285
X11072
X5049Y12576
X4261
X3474
X2687
X1360Y9814
Y9026
T04
X960Y1020
X14960
Y12320
X960
M30
