G04*
G04 #@! TF.GenerationSoftware,Altium Limited,Altium Designer,20.0.2 (26)*
G04*
G04 Layer_Physical_Order=2*
G04 Layer_Color=16711680*
%FSLAX25Y25*%
%MOIN*%
G70*
G01*
G75*
%ADD68C,0.00984*%
%ADD71C,0.03937*%
%ADD72C,0.01181*%
%ADD73R,0.06000X0.05512*%
%ADD74C,0.05512*%
%ADD75C,0.06299*%
%ADD76C,0.11811*%
%ADD77C,0.01968*%
%ADD78C,0.03937*%
G36*
X151434Y131393D02*
X152889Y130789D01*
X154200Y129914D01*
X155314Y128800D01*
X156190Y127489D01*
X156793Y126033D01*
X157100Y124488D01*
Y123700D01*
Y10200D01*
Y9461D01*
X156812Y8012D01*
X156246Y6647D01*
X155426Y5419D01*
X154381Y4374D01*
X153153Y3554D01*
X151788Y2988D01*
X150339Y2700D01*
X132003D01*
Y24736D01*
X132503Y24906D01*
X132634Y24735D01*
X133210Y24293D01*
X133881Y24015D01*
X134600Y23920D01*
X135319Y24015D01*
X135990Y24293D01*
X136565Y24735D01*
X137007Y25310D01*
X137285Y25981D01*
X137380Y26700D01*
Y30450D01*
Y34200D01*
X137285Y34919D01*
X137007Y35590D01*
X136565Y36165D01*
X134880Y37851D01*
Y86549D01*
X137566Y89235D01*
X138007Y89810D01*
X138285Y90481D01*
X138380Y91200D01*
Y95700D01*
X138285Y96419D01*
X138007Y97090D01*
X137566Y97666D01*
X136990Y98107D01*
X136319Y98385D01*
X135600Y98480D01*
X134881Y98385D01*
X134210Y98107D01*
X133634Y97666D01*
X133193Y97090D01*
X132915Y96419D01*
X132820Y95700D01*
Y92351D01*
X130949Y90480D01*
X119751D01*
X110565Y99665D01*
X109990Y100107D01*
X109319Y100385D01*
X108600Y100480D01*
X101100D01*
X100381Y100385D01*
X99710Y100107D01*
X99134Y99665D01*
X98693Y99090D01*
X98415Y98419D01*
X98320Y97700D01*
X98415Y96981D01*
X98693Y96310D01*
X99134Y95735D01*
X99710Y95293D01*
X100381Y95015D01*
X101100Y94920D01*
X107449D01*
X116635Y85734D01*
X117210Y85293D01*
X117881Y85015D01*
X118600Y84920D01*
X129320D01*
Y39480D01*
X71600D01*
X70881Y39385D01*
X70210Y39107D01*
X69634Y38666D01*
X67208Y36239D01*
X66645D01*
X66315Y36740D01*
X66406Y37200D01*
X66269Y37891D01*
X66005Y38286D01*
Y41245D01*
X66505Y41512D01*
X67100Y41394D01*
X67791Y41531D01*
X68377Y41923D01*
X68769Y42509D01*
X68906Y43200D01*
X68769Y43891D01*
X68505Y44286D01*
Y81200D01*
X68405Y81701D01*
X68427Y81730D01*
X68948Y81865D01*
X84607Y66207D01*
X85062Y65902D01*
X85600Y65795D01*
X108518D01*
X119839Y54475D01*
X119931Y54009D01*
X120323Y53423D01*
X120909Y53031D01*
X121600Y52894D01*
X122291Y53031D01*
X122877Y53423D01*
X123269Y54009D01*
X123406Y54700D01*
X123269Y55391D01*
X122877Y55977D01*
X122291Y56369D01*
X121825Y56462D01*
X119854Y58433D01*
X120100Y58894D01*
X120791Y59031D01*
X121377Y59423D01*
X121769Y60009D01*
X121906Y60700D01*
X121769Y61391D01*
X121377Y61977D01*
X120791Y62369D01*
X120325Y62462D01*
X91505Y91282D01*
Y112370D01*
X101541Y122406D01*
X101923Y122248D01*
X102848Y122126D01*
X103405Y122199D01*
X103639Y121726D01*
X92607Y110694D01*
X92302Y110238D01*
X92195Y109700D01*
Y94200D01*
X92302Y93662D01*
X92607Y93207D01*
X119339Y66475D01*
X119431Y66009D01*
X119823Y65423D01*
X120409Y65031D01*
X121100Y64894D01*
X121791Y65031D01*
X122377Y65423D01*
X122769Y66009D01*
X122906Y66700D01*
X122769Y67391D01*
X122377Y67977D01*
X121791Y68369D01*
X121325Y68462D01*
X101476Y88311D01*
X101795Y88699D01*
X102101Y88495D01*
X102600Y88395D01*
X103364D01*
X103909Y88031D01*
X104600Y87894D01*
X105291Y88031D01*
X105877Y88423D01*
X106269Y89009D01*
X106406Y89700D01*
X106269Y90391D01*
X105877Y90977D01*
X105291Y91369D01*
X104600Y91506D01*
X103909Y91369D01*
X103364Y91005D01*
X103140D01*
X97405Y96740D01*
Y101660D01*
X99890Y104145D01*
X110850D01*
X111349Y104245D01*
X111773Y104527D01*
X121148Y113903D01*
X121791Y114031D01*
X122377Y114423D01*
X122769Y115009D01*
X122906Y115700D01*
X122769Y116391D01*
X122377Y116977D01*
X121791Y117369D01*
X121100Y117506D01*
X120409Y117369D01*
X119823Y116977D01*
X119431Y116391D01*
X119303Y115748D01*
X110310Y106755D01*
X99350D01*
X98851Y106655D01*
X98427Y106372D01*
X95505Y103450D01*
X95005Y103657D01*
Y109118D01*
X108044Y122157D01*
X114509D01*
Y129243D01*
X106935D01*
Y125411D01*
X106884Y125380D01*
X106419Y125679D01*
X106422Y125700D01*
X106300Y126625D01*
X105943Y127487D01*
X105375Y128227D01*
X104635Y128795D01*
X103773Y129152D01*
X102848Y129274D01*
X101923Y129152D01*
X101061Y128795D01*
X100321Y128227D01*
X99753Y127487D01*
X99396Y126625D01*
X99274Y125700D01*
X99396Y124775D01*
X99554Y124393D01*
X89107Y113945D01*
X88802Y113490D01*
X88695Y112952D01*
Y90700D01*
X88802Y90162D01*
X89107Y89707D01*
X109765Y69048D01*
X109630Y68528D01*
X109601Y68505D01*
X109100Y68605D01*
X86182D01*
X51894Y102893D01*
Y122510D01*
X52276Y122668D01*
X53016Y123236D01*
X53584Y123976D01*
X53941Y124838D01*
X54063Y125763D01*
X53941Y126688D01*
X53584Y127550D01*
X53016Y128290D01*
X52276Y128858D01*
X51414Y129215D01*
X50489Y129337D01*
X49564Y129215D01*
X48702Y128858D01*
X47962Y128290D01*
X47394Y127550D01*
X47037Y126688D01*
X46915Y125763D01*
X47037Y124838D01*
X47394Y123976D01*
X47962Y123236D01*
X48702Y122668D01*
X49084Y122510D01*
Y102311D01*
X49184Y101810D01*
X49161Y101781D01*
X48641Y101646D01*
X44020Y106267D01*
Y122510D01*
X44402Y122668D01*
X45142Y123236D01*
X45710Y123976D01*
X46067Y124838D01*
X46189Y125763D01*
X46067Y126688D01*
X45710Y127550D01*
X45142Y128290D01*
X44402Y128858D01*
X43540Y129215D01*
X42615Y129337D01*
X41690Y129215D01*
X40828Y128858D01*
X40088Y128290D01*
X39520Y127550D01*
X39163Y126688D01*
X39041Y125763D01*
X39163Y124838D01*
X39520Y123976D01*
X40088Y123236D01*
X40828Y122668D01*
X41210Y122510D01*
Y105784D01*
X40973Y105625D01*
X40725Y105562D01*
X36505Y109782D01*
Y122658D01*
X36528Y122668D01*
X37268Y123236D01*
X37836Y123976D01*
X38193Y124838D01*
X38315Y125763D01*
X38193Y126688D01*
X37836Y127550D01*
X37268Y128290D01*
X36528Y128858D01*
X35666Y129215D01*
X34741Y129337D01*
X33816Y129215D01*
X32954Y128858D01*
X32214Y128290D01*
X31646Y127550D01*
X31289Y126688D01*
X31167Y125763D01*
X31289Y124838D01*
X31646Y123976D01*
X32214Y123236D01*
X32954Y122668D01*
X33695Y122361D01*
Y109200D01*
X33802Y108662D01*
X34106Y108206D01*
X63195Y79118D01*
Y38286D01*
X62931Y37891D01*
X62794Y37200D01*
X62885Y36740D01*
X62555Y36239D01*
X45491D01*
X44065Y37666D01*
X43490Y38107D01*
X42819Y38385D01*
X42100Y38480D01*
X38100D01*
X37381Y38385D01*
X36710Y38107D01*
X36134Y37666D01*
X35693Y37090D01*
X35415Y36419D01*
X35320Y35700D01*
X35415Y34981D01*
X35693Y34310D01*
X36134Y33735D01*
X36710Y33293D01*
X37381Y33015D01*
X38100Y32920D01*
X40949D01*
X42375Y31494D01*
X42950Y31053D01*
X43621Y30775D01*
X44340Y30680D01*
X68360D01*
X69079Y30775D01*
X69750Y31053D01*
X70325Y31494D01*
X72751Y33920D01*
X130949D01*
X131820Y33049D01*
Y28334D01*
X131748Y28243D01*
X131320Y27979D01*
X131200Y28003D01*
X53400D01*
X53093Y27942D01*
X52832Y27768D01*
X52658Y27507D01*
X52597Y27200D01*
Y2700D01*
X8312D01*
X6767Y3007D01*
X5311Y3610D01*
X4000Y4486D01*
X2886Y5600D01*
X2011Y6911D01*
X1407Y8366D01*
X1100Y9912D01*
Y10700D01*
Y123700D01*
Y124488D01*
X1407Y126033D01*
X2011Y127489D01*
X2886Y128800D01*
X4000Y129914D01*
X5311Y130789D01*
X6767Y131393D01*
X8312Y131700D01*
X149888D01*
X151434Y131393D01*
D02*
G37*
%LPC*%
G36*
X27367Y129485D02*
Y126263D01*
X30589D01*
X30526Y126743D01*
X30148Y127657D01*
X29546Y128442D01*
X28761Y129044D01*
X27847Y129422D01*
X27367Y129485D01*
D02*
G37*
G36*
X26367D02*
X25886Y129422D01*
X24973Y129044D01*
X24188Y128442D01*
X23586Y127657D01*
X23208Y126743D01*
X23144Y126263D01*
X26367D01*
Y129485D01*
D02*
G37*
G36*
X150100Y130090D02*
Y123700D01*
X156490D01*
X156406Y124554D01*
X156011Y125855D01*
X155369Y127055D01*
X154507Y128107D01*
X153455Y128970D01*
X152255Y129611D01*
X150954Y130006D01*
X150100Y130090D01*
D02*
G37*
G36*
X149100D02*
X148246Y130006D01*
X146945Y129611D01*
X145745Y128970D01*
X144693Y128107D01*
X143831Y127055D01*
X143189Y125855D01*
X142794Y124554D01*
X142710Y123700D01*
X149100D01*
Y130090D01*
D02*
G37*
G36*
X10100D02*
Y123700D01*
X16490D01*
X16406Y124554D01*
X16011Y125855D01*
X15370Y127055D01*
X14507Y128107D01*
X13455Y128970D01*
X12255Y129611D01*
X10954Y130006D01*
X10100Y130090D01*
D02*
G37*
G36*
X9100D02*
X8246Y130006D01*
X6945Y129611D01*
X5745Y128970D01*
X4693Y128107D01*
X3830Y127055D01*
X3189Y125855D01*
X2794Y124554D01*
X2710Y123700D01*
X9100D01*
Y130090D01*
D02*
G37*
G36*
X62150Y129306D02*
X54576D01*
Y122220D01*
X62150D01*
Y129306D01*
D02*
G37*
G36*
X94974Y129274D02*
X94049Y129152D01*
X93187Y128795D01*
X92447Y128227D01*
X91879Y127487D01*
X91522Y126625D01*
X91400Y125700D01*
X91522Y124775D01*
X91680Y124393D01*
X85107Y117819D01*
X84802Y117364D01*
X84695Y116826D01*
Y80286D01*
X84431Y79891D01*
X84294Y79200D01*
X84431Y78509D01*
X84823Y77923D01*
X85409Y77531D01*
X86100Y77394D01*
X86791Y77531D01*
X87377Y77923D01*
X87769Y78509D01*
X87906Y79200D01*
X87769Y79891D01*
X87505Y80286D01*
Y116244D01*
X93667Y122406D01*
X94049Y122248D01*
X94974Y122126D01*
X95899Y122248D01*
X96761Y122605D01*
X97501Y123173D01*
X98069Y123913D01*
X98426Y124775D01*
X98548Y125700D01*
X98426Y126625D01*
X98069Y127487D01*
X97501Y128227D01*
X96761Y128795D01*
X95899Y129152D01*
X94974Y129274D01*
D02*
G37*
G36*
X30589Y125263D02*
X27367D01*
Y122040D01*
X27847Y122104D01*
X28761Y122482D01*
X29546Y123084D01*
X30148Y123869D01*
X30526Y124783D01*
X30589Y125263D01*
D02*
G37*
G36*
X26367D02*
X23144D01*
X23208Y124783D01*
X23586Y123869D01*
X24188Y123084D01*
X24973Y122482D01*
X25886Y122104D01*
X26367Y122040D01*
Y125263D01*
D02*
G37*
G36*
X156490Y122700D02*
X150100D01*
Y116310D01*
X150954Y116394D01*
X152255Y116789D01*
X153455Y117430D01*
X154507Y118293D01*
X155369Y119345D01*
X156011Y120545D01*
X156406Y121846D01*
X156490Y122700D01*
D02*
G37*
G36*
X149100D02*
X142710D01*
X142794Y121846D01*
X143189Y120545D01*
X143831Y119345D01*
X144693Y118293D01*
X145745Y117430D01*
X146945Y116789D01*
X148246Y116394D01*
X149100Y116310D01*
Y122700D01*
D02*
G37*
G36*
X16490D02*
X10100D01*
Y116310D01*
X10954Y116394D01*
X12255Y116789D01*
X13455Y117430D01*
X14507Y118293D01*
X15370Y119345D01*
X16011Y120545D01*
X16406Y121846D01*
X16490Y122700D01*
D02*
G37*
G36*
X9100D02*
X2710D01*
X2794Y121846D01*
X3189Y120545D01*
X3830Y119345D01*
X4693Y118293D01*
X5745Y117430D01*
X6945Y116789D01*
X8246Y116394D01*
X9100Y116310D01*
Y122700D01*
D02*
G37*
G36*
X13600Y102108D02*
X12572Y101973D01*
X11614Y101576D01*
X10792Y100945D01*
X10161Y100122D01*
X9764Y99165D01*
X9629Y98137D01*
X9764Y97109D01*
X10161Y96152D01*
X10792Y95329D01*
X11614Y94698D01*
X11886Y94586D01*
Y94045D01*
X11507Y93888D01*
X10640Y93222D01*
X9975Y92356D01*
X9557Y91346D01*
X9480Y90763D01*
X13600D01*
X17720D01*
X17643Y91346D01*
X17225Y92356D01*
X16559Y93222D01*
X15693Y93888D01*
X15314Y94045D01*
Y94586D01*
X15586Y94698D01*
X16408Y95329D01*
X17039Y96152D01*
X17436Y97109D01*
X17571Y98137D01*
X17436Y99165D01*
X17039Y100122D01*
X16408Y100945D01*
X15586Y101576D01*
X14628Y101973D01*
X13600Y102108D01*
D02*
G37*
G36*
X13100Y89763D02*
X9480D01*
X9557Y89180D01*
X9975Y88170D01*
X10640Y87304D01*
X11507Y86638D01*
X12517Y86220D01*
X13100Y86143D01*
Y89763D01*
D02*
G37*
G36*
X17720D02*
X14100D01*
Y86143D01*
X14683Y86220D01*
X15693Y86638D01*
X16559Y87304D01*
X17225Y88170D01*
X17643Y89180D01*
X17720Y89763D01*
D02*
G37*
G36*
X87100Y129274D02*
X86175Y129152D01*
X85313Y128795D01*
X84573Y128227D01*
X84005Y127487D01*
X83648Y126625D01*
X83526Y125700D01*
X83648Y124775D01*
X83806Y124393D01*
X81107Y121694D01*
X80802Y121238D01*
X80695Y120700D01*
Y81967D01*
X80195Y81753D01*
X80005Y81933D01*
Y122229D01*
X80151Y122248D01*
X81013Y122605D01*
X81753Y123173D01*
X82321Y123913D01*
X82678Y124775D01*
X82800Y125700D01*
X82678Y126625D01*
X82321Y127487D01*
X81753Y128227D01*
X81013Y128795D01*
X80151Y129152D01*
X79226Y129274D01*
X78301Y129152D01*
X77439Y128795D01*
X76699Y128227D01*
X76131Y127487D01*
X75774Y126625D01*
X75652Y125700D01*
X75774Y124775D01*
X76131Y123913D01*
X76699Y123173D01*
X77031Y122918D01*
X77008Y122724D01*
X76888Y122644D01*
X76484Y122555D01*
X74646Y124393D01*
X74804Y124775D01*
X74926Y125700D01*
X74804Y126625D01*
X74447Y127487D01*
X73879Y128227D01*
X73139Y128795D01*
X72277Y129152D01*
X71352Y129274D01*
X70427Y129152D01*
X69565Y128795D01*
X68825Y128227D01*
X68257Y127487D01*
X67900Y126625D01*
X67778Y125700D01*
X67900Y124775D01*
X68257Y123913D01*
X68825Y123173D01*
X69565Y122605D01*
X70427Y122248D01*
X71352Y122126D01*
X72277Y122248D01*
X72659Y122406D01*
X74195Y120870D01*
Y83786D01*
X73931Y83391D01*
X73794Y82700D01*
X73931Y82009D01*
X74323Y81423D01*
X74909Y81031D01*
X75600Y80894D01*
X76291Y81031D01*
X76359Y81076D01*
X76809Y80775D01*
X76794Y80700D01*
X76931Y80009D01*
X77323Y79423D01*
X77909Y79031D01*
X78600Y78894D01*
X79291Y79031D01*
X79877Y79423D01*
X80195Y79898D01*
X80695Y79783D01*
Y79286D01*
X80431Y78891D01*
X80294Y78200D01*
X80431Y77509D01*
X80823Y76923D01*
X81409Y76531D01*
X82100Y76394D01*
X82791Y76531D01*
X83377Y76923D01*
X83769Y77509D01*
X83906Y78200D01*
X83769Y78891D01*
X83505Y79286D01*
Y120118D01*
X85793Y122406D01*
X86175Y122248D01*
X87100Y122126D01*
X88025Y122248D01*
X88887Y122605D01*
X89627Y123173D01*
X90195Y123913D01*
X90552Y124775D01*
X90674Y125700D01*
X90552Y126625D01*
X90195Y127487D01*
X89627Y128227D01*
X88887Y128795D01*
X88025Y129152D01*
X87100Y129274D01*
D02*
G37*
G36*
X150100Y17090D02*
Y10700D01*
X156490D01*
X156406Y11554D01*
X156011Y12855D01*
X155369Y14055D01*
X154507Y15107D01*
X153455Y15969D01*
X152255Y16611D01*
X150954Y17006D01*
X150100Y17090D01*
D02*
G37*
G36*
X149100D02*
X148246Y17006D01*
X146945Y16611D01*
X145745Y15969D01*
X144693Y15107D01*
X143831Y14055D01*
X143189Y12855D01*
X142794Y11554D01*
X142710Y10700D01*
X149100D01*
Y17090D01*
D02*
G37*
G36*
X10100D02*
Y10700D01*
X16490D01*
X16406Y11554D01*
X16011Y12855D01*
X15370Y14055D01*
X14507Y15107D01*
X13455Y15969D01*
X12255Y16611D01*
X10954Y17006D01*
X10100Y17090D01*
D02*
G37*
G36*
X9100D02*
X8246Y17006D01*
X6945Y16611D01*
X5745Y15969D01*
X4693Y15107D01*
X3830Y14055D01*
X3189Y12855D01*
X2794Y11554D01*
X2710Y10700D01*
X9100D01*
Y17090D01*
D02*
G37*
G36*
X156490Y9700D02*
X150100D01*
Y3310D01*
X150954Y3394D01*
X152255Y3789D01*
X153455Y4431D01*
X154507Y5293D01*
X155369Y6345D01*
X156011Y7545D01*
X156406Y8846D01*
X156490Y9700D01*
D02*
G37*
G36*
X149100D02*
X142710D01*
X142794Y8846D01*
X143189Y7545D01*
X143831Y6345D01*
X144693Y5293D01*
X145745Y4431D01*
X146945Y3789D01*
X148246Y3394D01*
X149100Y3310D01*
Y9700D01*
D02*
G37*
G36*
X16490D02*
X10100D01*
Y3310D01*
X10954Y3394D01*
X12255Y3789D01*
X13455Y4431D01*
X14507Y5293D01*
X15370Y6345D01*
X16011Y7545D01*
X16406Y8846D01*
X16490Y9700D01*
D02*
G37*
G36*
X9100D02*
X2710D01*
X2794Y8846D01*
X3189Y7545D01*
X3830Y6345D01*
X4693Y5293D01*
X5745Y4431D01*
X6945Y3789D01*
X8246Y3394D01*
X9100Y3310D01*
Y9700D01*
D02*
G37*
%LPD*%
D68*
X110850Y105450D02*
X121100Y115700D01*
X99350Y105450D02*
X110850D01*
X96100Y102200D02*
X99350Y105450D01*
X96100Y96200D02*
Y102200D01*
Y96200D02*
X102600Y89700D01*
X104600D01*
D71*
X108600Y97700D02*
X118600Y87700D01*
X132100D01*
X103100Y97700D02*
X108600D01*
X38100Y35700D02*
X42100D01*
X44340Y33460D01*
X68360D01*
X71600Y36700D01*
X132100D01*
X134600Y30450D02*
Y34200D01*
Y26700D02*
Y30450D01*
X101100Y97700D02*
X103100D01*
X132100Y36700D02*
X134600Y34200D01*
X132100Y36700D02*
Y87700D01*
X135600Y91200D02*
Y95700D01*
X132100Y87700D02*
X135600Y91200D01*
D72*
X42615Y105685D02*
X67100Y81200D01*
X42615Y105685D02*
Y125763D01*
X67100Y43200D02*
Y81200D01*
X109100Y67200D02*
X121600Y54700D01*
X85600Y67200D02*
X109100D01*
X93600Y109700D02*
X109600Y125700D01*
X93600Y94200D02*
Y109700D01*
Y94200D02*
X121100Y66700D01*
X90100Y112952D02*
X102848Y125700D01*
X90100Y90700D02*
Y112952D01*
Y90700D02*
X120100Y60700D01*
X78600Y125074D02*
X79226Y125700D01*
X78600Y80700D02*
Y125074D01*
X75600Y82700D02*
Y121452D01*
X71352Y125700D02*
X75600Y121452D01*
X35100Y109200D02*
Y125763D01*
X64600Y37200D02*
Y79700D01*
X35100Y109200D02*
X64600Y79700D01*
X50489Y102311D02*
X85600Y67200D01*
X109600Y125700D02*
X110722D01*
X86100Y79200D02*
Y116826D01*
X94974Y125700D01*
X82100Y120700D02*
X87100Y125700D01*
X82100Y78200D02*
Y120700D01*
X50489Y102311D02*
Y125763D01*
D73*
X110722Y125700D02*
D03*
X58363Y125763D02*
D03*
D74*
X102848Y125700D02*
D03*
X94974D02*
D03*
X87100D02*
D03*
X79226D02*
D03*
X71352D02*
D03*
X26867Y125763D02*
D03*
X34741D02*
D03*
X42615D02*
D03*
X50489D02*
D03*
D75*
X13600Y98137D02*
D03*
Y90263D02*
D03*
D76*
X149600Y123200D02*
D03*
Y10200D02*
D03*
X9600D02*
D03*
Y123200D02*
D03*
D77*
X51600Y42200D02*
D03*
X46600D02*
D03*
X71600Y87200D02*
D03*
X76600Y67200D02*
D03*
X71600Y62200D02*
D03*
X141600Y102200D02*
D03*
Y122200D02*
D03*
Y112200D02*
D03*
X126600Y127200D02*
D03*
X136600D02*
D03*
Y122200D02*
D03*
X131600D02*
D03*
X126600D02*
D03*
X121600D02*
D03*
X46600Y77200D02*
D03*
X51600Y72200D02*
D03*
Y77200D02*
D03*
X46600Y72200D02*
D03*
X6600Y37200D02*
D03*
Y42200D02*
D03*
Y47200D02*
D03*
Y52200D02*
D03*
Y57200D02*
D03*
Y62200D02*
D03*
Y67200D02*
D03*
X11600Y77200D02*
D03*
X6600D02*
D03*
X26600Y82200D02*
D03*
X21600D02*
D03*
X16600Y117200D02*
D03*
X21600D02*
D03*
Y112200D02*
D03*
X11600D02*
D03*
X101600Y47200D02*
D03*
X96600D02*
D03*
X91600D02*
D03*
X86600D02*
D03*
X81600D02*
D03*
X71600D02*
D03*
X76600Y52200D02*
D03*
Y47200D02*
D03*
X106600Y42200D02*
D03*
X101600D02*
D03*
X96600D02*
D03*
X91600D02*
D03*
X86600D02*
D03*
X81600D02*
D03*
X76600D02*
D03*
X71600D02*
D03*
X96600Y72200D02*
D03*
Y77200D02*
D03*
X91600Y72200D02*
D03*
Y77200D02*
D03*
X89320Y51157D02*
D03*
Y55487D02*
D03*
Y59818D02*
D03*
X146600Y37200D02*
D03*
X141600Y92200D02*
D03*
X146600Y87200D02*
D03*
Y92200D02*
D03*
X151600Y82200D02*
D03*
Y92200D02*
D03*
Y102200D02*
D03*
Y112200D02*
D03*
Y42200D02*
D03*
Y32200D02*
D03*
X21600Y7200D02*
D03*
X26600D02*
D03*
Y12200D02*
D03*
X36600D02*
D03*
X31600Y7200D02*
D03*
X36600D02*
D03*
X41600D02*
D03*
Y17200D02*
D03*
X36600Y42200D02*
D03*
Y47200D02*
D03*
Y52200D02*
D03*
X41600Y22200D02*
D03*
Y12200D02*
D03*
X31600D02*
D03*
X21600D02*
D03*
X141600Y7200D02*
D03*
Y17200D02*
D03*
X151600Y27200D02*
D03*
Y37200D02*
D03*
Y47200D02*
D03*
Y87200D02*
D03*
Y97200D02*
D03*
Y107200D02*
D03*
X141600D02*
D03*
Y117200D02*
D03*
Y127200D02*
D03*
X131600D02*
D03*
X121600D02*
D03*
X26600Y112200D02*
D03*
X16600D02*
D03*
X6600D02*
D03*
X118100Y87806D02*
D03*
X128100Y100200D02*
D03*
X55600Y84200D02*
D03*
X67100Y107700D02*
D03*
X63600D02*
D03*
X67100Y116200D02*
D03*
X63600D02*
D03*
X16100Y83200D02*
D03*
X12100D02*
D03*
X8100D02*
D03*
Y87200D02*
D03*
Y91200D02*
D03*
X29600Y108200D02*
D03*
X26100D02*
D03*
X4100Y21200D02*
D03*
Y26200D02*
D03*
Y31700D02*
D03*
X30100Y50700D02*
D03*
X24600Y37200D02*
D03*
X21100D02*
D03*
X29100Y43200D02*
D03*
Y46700D02*
D03*
X6100Y73200D02*
D03*
X39100Y77200D02*
D03*
X42600Y74700D02*
D03*
X24600Y75200D02*
D03*
X21100D02*
D03*
X50100Y45700D02*
D03*
X46100D02*
D03*
X42600D02*
D03*
X50600Y68200D02*
D03*
X46600D02*
D03*
X43100Y69200D02*
D03*
X118600Y29300D02*
D03*
X115100D02*
D03*
X111600D02*
D03*
X108100D02*
D03*
X104600D02*
D03*
X101100D02*
D03*
X97600D02*
D03*
X94100D02*
D03*
X90600D02*
D03*
X87100D02*
D03*
X83600D02*
D03*
X80100D02*
D03*
X76600D02*
D03*
X73100D02*
D03*
X69600D02*
D03*
X66100D02*
D03*
X147100Y24700D02*
D03*
Y28700D02*
D03*
Y33200D02*
D03*
X146600Y43700D02*
D03*
Y47200D02*
D03*
X147600Y52700D02*
D03*
Y56700D02*
D03*
Y60700D02*
D03*
X147100Y71200D02*
D03*
Y75200D02*
D03*
X145600Y79200D02*
D03*
Y83200D02*
D03*
X121600Y79200D02*
D03*
X125100Y82700D02*
D03*
X121600D02*
D03*
X109100Y91200D02*
D03*
X102100Y113700D02*
D03*
X105100Y111200D02*
D03*
X145100Y96700D02*
D03*
Y100200D02*
D03*
X136100Y113700D02*
D03*
Y117200D02*
D03*
X135600Y108700D02*
D03*
X124100Y107200D02*
D03*
Y100200D02*
D03*
X120600D02*
D03*
Y103700D02*
D03*
X124100D02*
D03*
X128100D02*
D03*
Y107200D02*
D03*
X120600D02*
D03*
X38100Y35700D02*
D03*
X100600Y97700D02*
D03*
X134600Y34200D02*
D03*
Y30450D02*
D03*
Y26700D02*
D03*
X135600Y95700D02*
D03*
X86100Y79200D02*
D03*
X82100Y78200D02*
D03*
X78600Y80700D02*
D03*
X75600Y82700D02*
D03*
X103100Y97700D02*
D03*
X121100Y66700D02*
D03*
X120100Y60700D02*
D03*
X121600Y54700D02*
D03*
X67100Y43200D02*
D03*
X64600Y37200D02*
D03*
X104600Y89700D02*
D03*
X121100Y115700D02*
D03*
D78*
X95600Y60700D02*
D03*
Y51200D02*
D03*
X83600D02*
D03*
X84100Y59700D02*
D03*
M02*
