G04*
G04 #@! TF.GenerationSoftware,Altium Limited,Altium Designer,20.0.2 (26)*
G04*
G04 Layer_Color=16711935*
%FSLAX25Y25*%
%MOIN*%
G70*
G01*
G75*
%ADD10C,0.00500*%
D10*
X9600Y131200D02*
X8636Y131142D01*
X7685Y130967D01*
X6763Y130680D01*
X5882Y130284D01*
X5055Y129784D01*
X4295Y129188D01*
X3612Y128505D01*
X3016Y127744D01*
X2516Y126918D01*
X2120Y126037D01*
X1832Y125115D01*
X1658Y124164D01*
X1600Y123200D01*
X149600Y2200D02*
X150564Y2258D01*
X151514Y2433D01*
X152437Y2720D01*
X153318Y3116D01*
X154145Y3616D01*
X154905Y4212D01*
X155588Y4895D01*
X156184Y5655D01*
X156684Y6482D01*
X157080Y7363D01*
X157368Y8286D01*
X157542Y9236D01*
X157600Y10200D01*
Y123200D02*
X157542Y124164D01*
X157368Y125115D01*
X157080Y126037D01*
X156684Y126918D01*
X156184Y127744D01*
X155588Y128505D01*
X154905Y129188D01*
X154145Y129784D01*
X153318Y130284D01*
X152437Y130680D01*
X151514Y130967D01*
X150564Y131142D01*
X149600Y131200D01*
X1600Y10200D02*
X1658Y9236D01*
X1832Y8286D01*
X2120Y7363D01*
X2516Y6482D01*
X3016Y5655D01*
X3612Y4895D01*
X4295Y4212D01*
X5055Y3616D01*
X5882Y3116D01*
X6763Y2720D01*
X7685Y2433D01*
X8636Y2258D01*
X9600Y2200D01*
X157600Y10200D02*
Y123200D01*
X9600Y2200D02*
X149600D01*
X9600Y131200D02*
X149600D01*
X1600Y10200D02*
Y123200D01*
M02*
